:SAMPLES-PER-SECOND 30
:FULLY-SPECIFIED
:DEGREES
278
root  17.0325 38.5539 13.2209 1.46858 17.0927 -0.347097
RightUpLeg  0.831152 -0.260345 6.76872
RightLeg  17.6651 9.38671 -1.86642
RightFoot  -21.2926 0.00899586 -0.851467
RightToes  5.82077e-011 -3.18055e-015 -2.98177e-016
Spine  5.58242 1.34858 13.9397
Spine1  -0.265368 3.25314 -6.78844
HEad  -1.66555 -7.63514 2.33081
LeftShoulder1  -3.88251e-019 9.70628e-020 -3.87848e-018
LeftArm  -36.5411 73.8317 -82.4514
LeftForeArm  -6.3557 -16.2694 -3.2034
LeftHand  0.0273854 1.26439 -1.12017
RightShoulder  7.48579 10.5032 35.3787
RightArm  -1.48949 -40.514 25.8925
RightForeArm  19.7425 6.98476 -4.56587
RightHand  -0.759489 3.92885 -9.40425
LeftUpLeg  -29.3106 5.47921 -1.89408
LeftLeg  40.4586 7.19495 19.9137
LeftFoot  -1.86836 0.637644 -6.51466
LeftToes  7.79675e-011 9.80247e-012 -3.28897e-011
279
root  17.5169 38.5059 14.2494 1.6883 15.5254 0.0962146
RightUpLeg  3.11436 -0.59247 5.57194
RightLeg  16.5829 11.2472 -1.30136
RightFoot  -22.3522 0.031309 -0.523336
RightToes  5.82077e-011 -3.18055e-015 -2.98177e-016
Spine  5.53249 1.65453 13.8044
Spine1  -0.253474 3.58624 -8.39455
HEad  -2.6775 -7.17332 2.65218
LeftShoulder1  -3.88251e-019 9.70628e-020 -3.87848e-018
LeftArm  -35.7158 74.2172 -81.0265
LeftForeArm  -6.46302 -15.7305 -3.23124
LeftHand  0.0135911 3.74095 -2.90994
RightShoulder  7.48818 10.5024 35.3926
RightArm  1.23234 -39.8876 26.4364
RightForeArm  17.016 11.5493 -4.34779
RightHand  -0.983347 4.49525 -11.4835
LeftUpLeg  -28.9494 4.12243 -2.23326
LeftLeg  30.539 4.76229 12.7517
LeftFoot  -2.72536 0.5072 -5.67719
LeftToes  7.79675e-011 9.80247e-012 -3.28897e-011
280
root  18.0067 38.3864 15.306 1.35803 14.5531 1.01364
RightUpLeg  5.74552 -1.18319 3.83485
RightLeg  16.3035 12.9325 -1.07676
RightFoot  -23.9178 0.0436453 -0.357699
RightToes  5.82077e-011 -3.18055e-015 -2.98177e-016
Spine  6.01368 1.66816 12.2623
Spine1  0.0442593 3.66951 -9.07508
HEad  -3.74961 -6.62028 3.11654
LeftShoulder1  -3.88251e-019 9.70628e-020 -3.87848e-018
LeftArm  -34.3396 74.0782 -78.6666
LeftForeArm  -5.67782 -14.3382 -3.0929
LeftHand  -0.0308505 5.20228 -3.75233
RightShoulder  7.49643 10.5126 35.4117
RightArm  8.58224 -39.644 26.3473
RightForeArm  9.69888 16.6803 -6.07782
RightHand  -1.16944 4.98176 -13.019
LeftUpLeg  -27.6871 0.587123 -2.54375
LeftLeg  23.1952 -0.56233 7.03639
LeftFoot  -1.38917 0.395083 -3.93245
LeftToes  7.79675e-011 9.80247e-012 -3.28897e-011
281
root  18.5319 38.159 16.3864 0.617233 14.2029 2.23458
RightUpLeg  8.18887 -1.85432 1.8597
RightLeg  17.6179 14.0664 -1.38609
RightFoot  -25.488 0.0311755 -0.497944
RightToes  5.82077e-011 -3.18055e-015 -2.98177e-016
Spine  6.91992 1.37009 9.8619
Spine1  0.515654 3.44433 -8.90777
HEad  -4.95964 -6.0503 3.54249
LeftShoulder1  -3.88251e-019 9.70628e-020 -3.87848e-018
LeftArm  -32.5496 73.2413 -75.8176
LeftForeArm  -3.78093 -11.9851 -2.93113
LeftHand  -0.0354995 5.33984 -2.69045
RightShoulder  7.53131 10.5367 35.5344
RightArm  19.6939 -39.8645 25.6207
RightForeArm  -1.18894 21.9218 -11.0578
RightHand  -1.22483 5.24133 -13.2987
LeftUpLeg  -26.9599 -4.42195 -3.09975
LeftLeg  23.113 -3.38665 5.762
LeftFoot  -0.119008 0.182388 -1.56387
LeftToes  7.79675e-011 9.80247e-012 -3.28897e-011
282
root  19.1219 37.8363 17.5188 -0.166451 14.3141 3.18054
RightUpLeg  9.16441 -2.52222 -0.0168713
RightLeg  22.3199 14.5707 -1.59517
RightFoot  -27.0206 0.193679 0.800947
RightToes  5.82077e-011 -3.18055e-015 -2.98177e-016
Spine  7.43221 0.886302 8.06641
Spine1  1.20519 3.0477 -8.54812
HEad  -6.37122 -5.62376 4.08007
LeftShoulder1  -3.88251e-019 9.70628e-020 -3.87848e-018
LeftArm  -30.5756 71.469 -72.5306
LeftForeArm  -0.635692 -8.91317 -2.77815
LeftHand  -0.0187852 4.38767 -0.226257
RightShoulder  7.58319 10.5602 35.7436
RightArm  22.8663 -40.5834 24.2479
RightForeArm  -4.54211 27.4887 -14.645
RightHand  -1.28735 5.53524 -13.5956
LeftUpLeg  -26.686 -7.88216 -4.27758
LeftLeg  28.3209 -2.90235 7.2872
LeftFoot  -2.00382 -0.0357094 0.310687
LeftToes  7.79675e-011 9.80247e-012 -3.28897e-011
283
root  19.7403 37.5769 18.6747 -0.609835 13.9424 3.77113
RightUpLeg  7.63104 -3.49308 -2.09428
RightLeg  30.9901 15.6119 -0.962446
RightFoot  -26.572 0.58274 4.36385
RightToes  5.82077e-011 -3.18055e-015 -2.98177e-016
Spine  7.28424 0.59091 7.53865
Spine1  1.90963 3.03851 -9.23162
HEad  -7.57816 -5.4996 4.86039
LeftShoulder1  -3.88251e-019 9.70628e-020 -3.87848e-018
LeftArm  -28.92 68.9047 -69.0147
LeftForeArm  2.57578 -5.77963 -2.31836
LeftHand  -0.04323 3.20567 2.12159
RightShoulder  7.61689 10.57 35.8913
RightArm  23.0295 -42.0164 23.3415
RightForeArm  -7.22819 31.6932 -16.8305
RightHand  -1.5265 6.0244 -15.3894
LeftUpLeg  -25.6559 -8.72771 -5.65615
LeftLeg  32.6099 -1.36309 9.45395
LeftFoot  -5.82176 -0.0528552 0.54393
LeftToes  7.79675e-011 9.80247e-012 -3.28897e-011
284
root  20.2952 37.5993 19.7836 -0.585547 11.9997 4.64775
RightUpLeg  3.28152 -3.65387 -4.42543
RightLeg  41.8637 16.1731 -0.536596
RightFoot  -19.7697 0.492077 7.55833
RightToes  5.82077e-011 -3.18055e-015 -2.98177e-016
Spine  7.17343 0.858074 7.02321
Spine1  2.23973 3.69868 -11.1717
HEad  -8.19043 -5.43663 5.40975
LeftShoulder1  -3.88251e-019 9.70628e-020 -3.87848e-018
LeftArm  -28.3106 66.1826 -66.044
LeftForeArm  3.70659 -3.28603 -1.46761
LeftHand  -0.10376 2.45913 4.40161
RightShoulder  7.62277 10.5758 35.9079
RightArm  22.4071 -43.6976 23.5537
RightForeArm  -10.2031 33.2313 -17.6178
RightHand  -1.83071 6.67548 -17.4628
LeftUpLeg  -23.5366 -7.30511 -7.23692
LeftLeg  33.2913 -0.499414 10.3021
LeftFoot  -8.82569 -0.0440494 0.583935
LeftToes  7.79675e-011 9.80247e-012 -3.28897e-011
285
root  20.7545 37.8183 20.845 -0.557685 8.80582 5.78098
RightUpLeg  -3.31225 -2.45425 -6.24453
RightLeg  52.5175 14.6619 -2.60513
RightFoot  -6.39409 -0.394343 7.42079
RightToes  5.82077e-011 -3.18055e-015 -2.98177e-016
Spine  7.50122 1.42682 5.54273
Spine1  2.24337 4.40866 -12.6503
HEad  -8.5596 -4.94581 4.9284
LeftShoulder1  -3.88251e-019 9.70628e-020 -3.87848e-018
LeftArm  -28.511 63.8623 -64.2532
LeftForeArm  1.35507 -1.88166 -0.745164
LeftHand  -0.189681 2.23731 7.81063
RightShoulder  7.63249 10.5995 35.9039
RightArm  21.3101 -44.7052 24.7085
RightForeArm  -10.5101 32.5315 -17.1666
RightHand  -1.88111 7.12773 -17.2909
LeftUpLeg  -20.5374 -4.17187 -8.94309
LeftLeg  31.9467 -0.443219 9.88954
LeftFoot  -10.3315 -0.0629759 1.45606
LeftToes  7.79675e-011 9.80247e-012 -3.28897e-011
286
root  21.1299 38.0282 21.8733 -0.904217 6.02317 6.52295
RightUpLeg  -10.0503 -2.21862 -6.98568
RightLeg  60.4585 12.481 -7.70089
RightFoot  5.24072 -0.798936 4.71217
RightToes  5.82077e-011 -3.18055e-015 -2.98177e-016
Spine  7.89088 1.67081 3.23481
Spine1  2.52897 4.34426 -12.2613
HEad  -9.35622 -4.02792 3.25802
LeftShoulder1  -3.88251e-019 9.70628e-020 -3.87848e-018
LeftArm  -28.6855 61.8989 -63.4904
LeftForeArm  -3.68752 -1.81725 -0.527909
LeftHand  -0.254409 2.30624 10.9421
RightShoulder  7.66053 10.6357 35.9638
RightArm  20.2701 -44.9577 25.8214
RightForeArm  -7.39889 30.9179 -16.3556
RightHand  -1.63433 7.21517 -14.9669
LeftUpLeg  -17.1423 -1.21997 -10.1035
LeftLeg  30.4525 -0.157947 9.57572
LeftFoot  -11.5746 -0.055474 1.71503
LeftToes  7.79675e-011 9.80247e-012 -3.28897e-011
287
root  21.4679 38.2858 22.9222 -1.43778 4.67549 6.23368
RightUpLeg  -15.3546 -4.5485 -6.17321
RightLeg  64.9315 10.6088 -14.2631
RightFoot  8.24954 -0.401364 1.82945
RightToes  5.82077e-011 -3.18055e-015 -2.98177e-016
Spine  7.97692 1.3292 1.377
Spine1  3.03378 3.41868 -10.386
HEad  -10.5002 -3.221 1.18039
LeftShoulder1  -3.88251e-019 9.70628e-020 -3.87848e-018
LeftArm  -28.2253 59.9709 -63.1711
LeftForeArm  -8.57099 -3.01486 -0.723745
LeftHand  -0.25961 2.54151 12.1831
RightShoulder  7.67646 10.6545 36.0019
RightArm  19.8586 -45.2567 25.8388
RightForeArm  -2.87031 29.2913 -15.6325
RightHand  -1.4436 7.3151 -13.1618
LeftUpLeg  -13.5524 -0.329827 -10.1183
LeftLeg  28.4961 0.979123 9.60304
LeftFoot  -12.794 -0.03661 0.882159
LeftToes  7.79675e-011 9.80247e-012 -3.28897e-011
288
root  21.7881 38.6304 24.0221 -1.72513 4.09982 5.11008
RightUpLeg  -19.6449 -8.232 -3.93184
RightLeg  66.2537 9.27207 -19.2657
RightFoot  5.70791 -0.0564575 0.175314
RightToes  5.82077e-011 -3.18055e-015 -2.98177e-016
Spine  7.89756 0.743502 0.331994
Spine1  3.01915 2.17881 -7.94371
HEad  -11.2662 -2.67428 -0.365194
LeftShoulder1  -3.88251e-019 9.70628e-020 -3.87848e-018
LeftArm  -27.2006 58.0289 -62.9246
LeftForeArm  -11.2206 -4.9974 -1.06266
LeftHand  -0.260884 2.50551 12.0724
RightShoulder  7.64805 10.6434 35.8843
RightArm  20.2699 -45.9345 24.5734
RightForeArm  0.887332 27.4626 -14.7856
RightHand  -1.47267 7.48282 -13.246
LeftUpLeg  -10.1148 -1.02348 -9.34196
LeftLeg  25.8646 2.50325 9.51842
LeftFoot  -13.3064 -0.0348088 0.413394
LeftToes  7.79675e-011 9.80247e-012 -3.28897e-011
289
root  22.0665 38.8918 25.1504 -1.62462 3.2072 4.06239
RightUpLeg  -23.8653 -10.9205 -1.21272
RightLeg  65.3774 8.56962 -20.3886
RightFoot  3.95727 -0.0123779 -0.0654514
RightToes  5.82077e-011 -3.18055e-015 -2.98177e-016
Spine  7.83941 0.361489 -1.16697
Spine1  2.37904 1.04239 -5.12686
HEad  -11.4715 -1.89945 -1.04094
LeftShoulder1  -3.88251e-019 9.70628e-020 -3.87848e-018
LeftArm  -25.7667 56.2528 -62.6481
LeftForeArm  -11.9283 -7.43313 -1.47559
LeftHand  -0.352698 1.65577 12.2406
RightShoulder  7.59133 10.6248 35.6412
RightArm  21.0339 -46.435 22.6967
RightForeArm  3.3711 25.058 -13.6339
RightHand  -1.57037 7.53575 -14.0533
LeftUpLeg  -7.20909 -1.22821 -8.64126
LeftLeg  23.5876 3.72462 9.29262
LeftFoot  -13.5412 -0.0338515 0.6403
LeftToes  7.79675e-011 9.80247e-012 -3.28897e-011
